<svg xmlns="http://www.w3.org/2000/svg" width="23.956" height="22.356" viewBox="0 0 23.956 22.356"><defs><style>.a{fill:#a1a1a1;}</style></defs><g transform="translate(538.582 -32.043)"><path class="a" d="M-535.4,63.87c0,.588-.009,1.152,0,1.716a1.589,1.589,0,0,0,1.13,1.486,1.6,1.6,0,0,0,2.075-1.5c.008-.556,0-1.112,0-1.686h3.981c0,.551,0,1.1,0,1.643a1.6,1.6,0,0,0,1.151,1.547,1.543,1.543,0,0,0,1.782-.659,2.123,2.123,0,0,0,.267-.889c.043-.521.013-1.048.014-1.572a.461.461,0,0,1,.014-.068h3.961c0,.3,0,.6,0,.908a6.549,6.549,0,0,0,.044,1.068,1.579,1.579,0,0,0,1.664,1.279,1.615,1.615,0,0,0,1.5-1.606c0-.547,0-1.094,0-1.646a2.677,2.677,0,0,1,2.8,1.083,2.323,2.323,0,0,1,.378,1.3q0,5.842,0,11.683,0,2.11,0,4.219a2.384,2.384,0,0,1-2.463,2.452q-9.549,0-19.1,0a2.379,2.379,0,0,1-2.39-2.374q-.006-7.989,0-15.977a2.38,2.38,0,0,1,2.409-2.406C-535.922,63.868-535.675,63.87-535.4,63.87Zm19.192,6.393H-537V70.6q0,5.356,0,10.711a.826.826,0,0,0,.934.934h18.876a1.668,1.668,0,0,0,.348-.021.808.808,0,0,0,.633-.867q0-4.382,0-8.764Z" transform="translate(0 -30.229)"/><path class="a" d="M-170.583,34.01c0-.383,0-.766,0-1.148a.79.79,0,0,1,.8-.815.79.79,0,0,1,.783.828q0,1.161,0,2.322a.786.786,0,0,1-.783.827.8.8,0,0,1-.8-.84c0-.2,0-.4,0-.6S-170.583,34.2-170.583,34.01Z" transform="translate(-349.62 -0.003)"/><path class="a" d="M-314.575,34.025c0-.383,0-.765,0-1.148a.787.787,0,0,1,.8-.831.794.794,0,0,1,.776.836q0,1.148,0,2.3a.793.793,0,0,1-.792.844.8.8,0,0,1-.787-.849C-314.577,34.79-314.575,34.407-314.575,34.025Z" transform="translate(-212.819 -0.002)"/><path class="a" d="M-458.578,34.028c0-.391,0-.782,0-1.173a.789.789,0,0,1,.773-.811.782.782,0,0,1,.8.806q.012,1.185,0,2.371a.786.786,0,0,1-.811.8.793.793,0,0,1-.766-.819C-458.581,34.81-458.578,34.419-458.578,34.028Z" transform="translate(-76.008 0)"/><path class="a" d="M-185,224c.374,0,.747,0,1.121,0,.316,0,.459.143.461.454q.005.735,0,1.47c0,.312-.144.453-.461.454q-1.121,0-2.242,0c-.332,0-.471-.139-.474-.466,0-.49,0-.98,0-1.47a.4.4,0,0,1,.449-.443c.382,0,.764,0,1.146,0Z" transform="translate(-334.403 -182.364)"/><path class="a" d="M-473,352c.374,0,.747,0,1.121,0,.316,0,.459.143.461.454q0,.735,0,1.47c0,.312-.144.453-.461.454q-1.121,0-2.242,0c-.332,0-.472-.139-.474-.466,0-.49,0-.98,0-1.47a.4.4,0,0,1,.449-.443c.382,0,.764,0,1.146,0Z" transform="translate(-60.786 -303.971)"/><path class="a" d="M-280.989,226.4c-.374,0-.747,0-1.121,0-.328,0-.466-.143-.467-.473q0-.723,0-1.445c0-.317.14-.458.454-.459q1.134,0,2.267,0c.313,0,.453.144.455.459q.006.735,0,1.47a.4.4,0,0,1-.444.449c-.382,0-.764,0-1.146,0Z" transform="translate(-243.218 -182.385)"/><path class="a" d="M-185,288.02c.382,0,.764,0,1.146,0a.394.394,0,0,1,.448.441q.007.747,0,1.495a.4.4,0,0,1-.45.442q-1.134,0-2.267,0c-.315,0-.458-.144-.46-.455q0-.735,0-1.47c0-.313.143-.45.461-.453C-185.748,288.018-185.374,288.02-185,288.02Z" transform="translate(-334.419 -243.191)"/><path class="a" d="M-281.019,290.4c-.366,0-.732,0-1.1,0-.328,0-.469-.148-.47-.475,0-.483,0-.965,0-1.448,0-.313.145-.455.461-.456q1.136,0,2.272,0a.394.394,0,0,1,.443.448q.006.736,0,1.473c0,.313-.146.454-.462.457C-280.253,290.4-280.636,290.4-281.019,290.4Z" transform="translate(-243.21 -243.188)"/><path class="a" d="M-473.009,290.377c-.374,0-.749,0-1.123,0-.315,0-.457-.143-.459-.457q-.005-.724,0-1.448c0-.332.139-.471.47-.473q1.123-.005,2.247,0a.4.4,0,0,1,.462.457q0,.724,0,1.448c0,.329-.143.471-.47.473C-472.26,290.379-472.634,290.377-473.009,290.377Z" transform="translate(-60.792 -243.169)"/><path class="a" d="M-376.993,290.38c-.383,0-.766,0-1.148,0a.4.4,0,0,1-.459-.46q-.006-.736,0-1.473a.394.394,0,0,1,.446-.446q1.148-.006,2.3,0a.392.392,0,0,1,.434.434q.009.761,0,1.523a.387.387,0,0,1-.421.421c-.383.006-.766,0-1.148,0Z" transform="translate(-151.989 -243.171)"/><path class="a" d="M-376.989,352c.374,0,.749,0,1.123,0a.4.4,0,0,1,.454.465q0,.711,0,1.423c0,.348-.138.489-.479.49q-1.111,0-2.222,0c-.333,0-.474-.139-.476-.466q0-.711,0-1.423c0-.36.135-.488.5-.491S-377.355,352-376.989,352Z" transform="translate(-152 -303.973)"/><path class="a" d="M-281.019,352.006c.374,0,.749,0,1.123,0,.312,0,.461.144.464.455,0,.491,0,.982,0,1.473a.4.4,0,0,1-.442.451q-1.148.006-2.3,0a.392.392,0,0,1-.438-.43q-.009-.761,0-1.523a.39.39,0,0,1,.44-.426c.383,0,.765,0,1.148,0Z" transform="translate(-243.187 -303.983)"/><path class="a" d="M-377.012,226.4c-.374,0-.749,0-1.123,0-.31,0-.451-.153-.453-.466q0-.724,0-1.448c0-.317.143-.462.453-.464q1.136,0,2.272,0a.4.4,0,0,1,.451.44q.007.736,0,1.473c0,.326-.145.462-.479.465C-376.263,226.4-376.637,226.4-377.012,226.4Z" transform="translate(-152.003 -182.384)"/></g></svg>