<svg xmlns="http://www.w3.org/2000/svg" width="45.676" height="60.298" viewBox="0 0 45.676 60.298">
  <g id="Group_1316" data-name="Group 1316" transform="translate(-109 -937.819)">
    <g id="Group_484" data-name="Group 484" transform="translate(782.77 -441.651)">
      <path id="Path_1625" data-name="Path 1625" d="M-670.363,1439.768a5.077,5.077,0,0,1-2.27-1.264,4.332,4.332,0,0,1-1.137-3.057q0-17.65,0-35.3,0-7.825,0-15.649c0-2.959.69-3.981,3.4-5.029H-631.5c.273.095.551.179.819.286a4.135,4.135,0,0,1,2.585,4.035q0,18.591,0,37.182,0,7.148,0,14.3a4.115,4.115,0,0,1-3.315,4.427c-.034.01-.06.047-.089.072Zm-1.994-8.417h42.829v-43.466h-42.829Zm42.872-44.868c0-.9-.055-1.749.012-2.585a2.852,2.852,0,0,0-3.042-3.076c-7.69.047-15.38.02-23.07.02q-6.945,0-13.889,0a2.517,2.517,0,0,0-2.777,2.023,23.8,23.8,0,0,0-.038,3.616Zm-42.881,46.27c0,1.138-.055,2.219.014,3.291a2.669,2.669,0,0,0,2.888,2.347q14.036,0,28.073,0c3.021,0,6.042.006,9.063,0a2.489,2.489,0,0,0,2.716-2.022,24,24,0,0,0,.038-3.616Z" fill="#2a2a2a"/>
      <path id="Path_1626" data-name="Path 1626" d="M-564.44,1651.328h-11.108c-.023.137-.052.284-.072.432a2.069,2.069,0,0,1-1.7,1.786,5.929,5.929,0,0,1-1.346.061,2.176,2.176,0,0,1-2.111-2.354c-.011-1.922-.015-3.844.005-5.767a.807.807,0,0,0-.513-.876,1.2,1.2,0,0,1-.711-1.228c-.055-1.742.142-2.144,2.011-2.04a.9.9,0,0,0,.931-.559c.5-.955,1.025-1.893,1.536-2.84a2.631,2.631,0,0,1,2.485-1.472h10.121a2.633,2.633,0,0,1,2.483,1.476c.511.948,1.04,1.885,1.537,2.839a.9.9,0,0,0,.934.555,6.233,6.233,0,0,1,1,.013,1.017,1.017,0,0,1,.995,1.091c.009.333-.012.667.005,1a1.065,1.065,0,0,1-.656,1.138.884.884,0,0,0-.562.965c.024,1.922.019,3.844.005,5.766a2.116,2.116,0,0,1-1.592,2.2c-1.566.3-2.662.087-3.291-1A6.311,6.311,0,0,1-564.44,1651.328Zm5.069-8.6a2.827,2.827,0,0,0-.4-.021,2.292,2.292,0,0,1-2.425-1.473c-.433-.877-.937-1.719-1.394-2.584a1.363,1.363,0,0,0-1.316-.8q-5.063.016-10.126,0a1.359,1.359,0,0,0-1.316.8c-.381.729-.835,1.423-1.168,2.172a2.653,2.653,0,0,1-2.946,1.895c-.032,0-.069.027-.259.107.134.263.2.611.409.76a2.065,2.065,0,0,1,.923,1.851c-.022,1.9,0,3.807-.011,5.711,0,.436.021.94.494,1.006a3.329,3.329,0,0,0,1.671-.17c.217-.09.269-.718.294-1.107.05-.761.219-.966.994-.967q5.975,0,11.951,0c.78,0,.981.2.989.958.013,1.223.185,1.394,1.4,1.384.816-.006,1.066-.262,1.067-1.1q0-2.944,0-5.887a1.688,1.688,0,0,1,.837-1.581A.7.7,0,0,0-559.37,1642.73Z" transform="translate(-80.96 -226.73)" fill="#ffbd00"/>
      <path id="Path_1628" data-name="Path 1628" d="M-397.038,1713.358h-10.911a19.741,19.741,0,0,0,10.911-11.92Z" transform="translate(-234.511 -284.045)" fill="#2a2a2a"/>
      <path id="Path_1629" data-name="Path 1629" d="M-645.806,1715.537v-11.589a19.659,19.659,0,0,0,11.1,11.589Z" transform="translate(-24.67 -286.259)" fill="#2a2a2a"/>
      <path id="Path_1630" data-name="Path 1630" d="M-495.963,1491.056c-2.783,0-5.566,0-8.349-.006a1.343,1.343,0,0,1-.72-.153.722.722,0,0,1-.277-.585.929.929,0,0,1,.439-.554,1.482,1.482,0,0,1,.686-.082q8.261-.005,16.522,0c.1,0,.2,0,.294,0,.459.015.836.16.827.7s-.367.686-.837.686Z" transform="translate(-148.614 -97.222)" fill="#2a2a2a"/>
      <path id="Path_1631" data-name="Path 1631" d="M-495.822,1532.688q-4.151,0-8.3,0a1.211,1.211,0,0,1-.63-.066c-.214-.151-.5-.44-.472-.633.031-.24.326-.47.55-.65.1-.078.3-.02.461-.02h16.722c.157,0,.364-.057.461.021.22.178.507.408.537.646.025.195-.245.483-.454.633a1.2,1.2,0,0,1-.629.068Q-491.7,1532.691-495.822,1532.688Z" transform="translate(-148.691 -133.944)" fill="#2a2a2a"/>
      <path id="Path_1632" data-name="Path 1632" d="M-495.865,1574.523h-8.3c-.2,0-.442.059-.576-.035-.215-.151-.489-.406-.491-.62s.267-.471.473-.639c.11-.089.341-.035.517-.035h16.775c.157,0,.36-.052.461.025.21.162.514.4.5.6-.011.237-.276.495-.489.675-.106.089-.34.031-.517.032Z" transform="translate(-148.687 -170.89)" fill="#2a2a2a"/>
      <path id="Path_1633" data-name="Path 1633" d="M-517.461,1410.693c-1.451,0-2.9.026-4.352-.023a1,1,0,0,1-.712-.522c-.072-.159.176-.5.34-.713.068-.087.292-.072.446-.072,2.824,0,5.647,0,8.471-.007.458,0,.793.167.805.648.014.524-.344.692-.821.69C-514.677,1410.69-516.069,1410.693-517.461,1410.693Z" transform="translate(-133.419 -26.366)" fill="#ffbd00"/>
      <path id="Path_1634" data-name="Path 1634" d="M-517.74,1851.426q-2.089,0-4.177,0c-.591,0-.921-.249-.887-.686.041-.529.406-.653.869-.653,2.785,0,5.57,0,8.354,0,.606,0,.926.249.887.69-.05.564-.445.656-.927.651C-514.994,1851.417-516.367,1851.425-517.74,1851.426Z" transform="translate(-133.182 -415.184)" fill="#ffbd00"/>
      <path id="Path_1635" data-name="Path 1635" d="M-533.039,1668.277c.491-.9.937-1.742,1.417-2.566a.62.62,0,0,1,.458-.249q4.38-.022,8.761,0a.622.622,0,0,1,.464.238c.48.825.925,1.67,1.42,2.578Z" transform="translate(-124.155 -252.296)" fill="#ffbd00"/>
    </g>
    <path id="Path_3277" data-name="Path 3277" d="M2579.594,244.312l.4.021a7.261,7.261,0,0,0,2.694-.278,2.584,2.584,0,0,0,1.7-1.465c.1-.239.152-.5.233-.77h-5.538a1.244,1.244,0,0,1,.063-.111c.274-.371.554-.738.821-1.114a.351.351,0,0,1,.327-.156c1.283,0,2.565-.009,3.848-.016.047,0,.094,0,.159-.007a1.456,1.456,0,0,0-.388-.554,2.9,2.9,0,0,0-1.337-.642,12.067,12.067,0,0,0-2.825-.232h-.625c.025-.044.042-.077.062-.108.249-.388.5-.775.745-1.165a.179.179,0,0,1,.17-.1q4.5,0,8.994,0c.023,0,.045,0,.091.007-.086.135-.16.259-.241.377-.214.312-.434.621-.645.935a.212.212,0,0,1-.2.1c-.675,0-1.351,0-2.026,0h-.175a.865.865,0,0,0,.042.1,4.161,4.161,0,0,1,.571,1.221c.007.031.086.064.132.064.67.01,1.341.016,2.011.022.158,0,.317,0,.5,0-.137.217-.257.409-.38.6-.148.228-.3.453-.447.682a.182.182,0,0,1-.177.093c-.515,0-1.03,0-1.557,0-.037.137-.071.272-.109.4a3.923,3.923,0,0,1-2.928,2.819c-.46.126-.943.169-1.417.249-.076.013-.154.016-.263.027.224.3.421.6.645.869,1.023,1.246,2.056,2.485,3.082,3.729.463.562.919,1.131,1.377,1.7.069.086.134.176.214.282-.061,0-.1.009-.142.009-.661,0-1.322,0-1.983,0a.289.289,0,0,1-.194-.087q-2.258-2.641-4.511-5.288c-.17-.2-.354-.387-.535-.576a.753.753,0,0,1-.237-.586C2579.606,245.014,2579.594,244.67,2579.594,244.312Z" transform="translate(-2465.078 713.219)" fill="#2a2a2a"/>
  </g>
</svg>
