<svg xmlns="http://www.w3.org/2000/svg" width="51.435" height="47" viewBox="0 0 51.435 47"><defs><style>.a{fill:#2a2a2a;}.b{fill:#ffbd00;}</style></defs><g transform="translate(-1308.638 -587.879)"><path class="a" d="M1360.073,884.911a1.545,1.545,0,0,1-1.625.9c-.968-.037-1.938-.009-2.929-.009a4.734,4.734,0,0,1-2.13,2.518,4.6,4.6,0,0,1-6.439-2.1.617.617,0,0,0-.662-.425q-10.568.015-21.136,0a.659.659,0,0,0-.7.443,4.606,4.606,0,0,1-8.369-.036.579.579,0,0,0-.627-.408c-.953.026-1.908.012-2.861.009a3.451,3.451,0,0,1-3.449-2.337c-.215-.537-.338-1.111-.5-1.668V880.39c.339-.916.726-1.818,1-2.754a5.725,5.725,0,0,0,.069-1.493c.011-1.1.385-1.494,1.483-1.462a10.233,10.233,0,0,0,5.362-1.385,21.3,21.3,0,0,1,6.793-2.58,25.2,25.2,0,0,1,3.579-.391c2.273-.06,4.549-.034,6.823-.005a12.553,12.553,0,0,1,5.517,1.457c1.416.712,2.858,1.374,4.245,2.137a13.75,13.75,0,0,0,5.866,1.473,25.3,25.3,0,0,1,7.949,1.675,1.514,1.514,0,0,1,1.157,1.707,1.817,1.817,0,0,1,0,.3.943.943,0,0,0,.59,1.122,1.917,1.917,0,0,1,1.008,1.3Zm-44.43-.312a4.668,4.668,0,0,1,4.188-4.917,4.555,4.555,0,0,1,3.246.93,4.776,4.776,0,0,1,1.851,3.972h21.549c.289-2.926,1.848-4.731,4.188-4.9a4.662,4.662,0,0,1,5.112,4.9h3.094c0-.908-.015-1.778.007-2.647a.671.671,0,0,0-.407-.727,1.754,1.754,0,0,1-1.138-2.154c.005-.033,0-.068,0-.1.1-.493-.163-.71-.6-.874a27.377,27.377,0,0,0-7.081-1.5,16.866,16.866,0,0,1-5.018-.839.518.518,0,0,0-.428.109,7.71,7.71,0,0,1-5.139,1.8q-5.649.006-11.3,0a8.657,8.657,0,0,1-6.271-2.466,26.9,26.9,0,0,1-1.82-2.193c-2.728,1.43-5.466,3.12-8.805,2.857v1.349c1.075,0,2.125,0,3.174,0,.479,0,.781.245.779.6s-.29.581-.784.583c-1.038,0-2.076-.007-3.113.01a.588.588,0,0,0-.443.2,4.884,4.884,0,0,0-.036,4.924,1.9,1.9,0,0,0,1.55,1.072C1313.2,884.647,1314.407,884.6,1315.644,884.6Zm27.6-9.488c-.158-.089-.282-.166-.412-.231-1.207-.606-2.423-1.193-3.619-1.819a12.672,12.672,0,0,0-5.178-1.564c-.927-.053-1.859-.009-2.8-.009v4.948a1.325,1.325,0,0,0,.21.036c2.759,0,5.519.032,8.277-.02A5.718,5.718,0,0,0,1343.248,875.111Zm-13.235-3.637a23.758,23.758,0,0,0-9.073,1.1c.114.191.192.337.283.474a8.448,8.448,0,0,0,8.79,3.357Zm-9.739,16.259a3.415,3.415,0,0,0,3.452-3.469,3.475,3.475,0,0,0-3.432-3.463,3.518,3.518,0,0,0-3.5,3.466A3.476,3.476,0,0,0,1320.274,887.732Zm30.865,0a3.458,3.458,0,0,0,3.472-3.465,3.465,3.465,0,1,0-6.93,0A3.424,3.424,0,0,0,1351.139,887.732Z" transform="translate(0 -254.036)"/><path class="b" d="M1350.7,592.679a2.717,2.717,0,0,1,1.952.74,1.672,1.672,0,0,0,2.107.3q1.712-.761,3.466-1.426a1.773,1.773,0,0,0,1.266-1.626,2.778,2.778,0,0,1,3.069-2.785c.8,0,1.607,0,2.411,0a2.823,2.823,0,0,1,2.878,2.746,1.684,1.684,0,0,0,1.256,1.667c1.151.441,2.292.909,3.417,1.411a1.708,1.708,0,0,0,2.118-.264,2.778,2.778,0,0,1,4,.139c.617.614,1.237,1.225,1.846,1.847a2.781,2.781,0,0,1,.052,3.932,1.655,1.655,0,0,0-.3,2.023c.521,1.19,1.011,2.394,1.488,3.6a1.722,1.722,0,0,0,1.584,1.177,2.682,2.682,0,0,1,2.751,2.465,18.767,18.767,0,0,1-.035,3.6,2.661,2.661,0,0,1-2.607,2.274,1.7,1.7,0,0,0-1.724,1.32c-.287.817-.6,1.625-.934,2.427-.187.455-.531.613-.859.424-.39-.225-.337-.553-.194-.916.318-.806.622-1.618.918-2.433a2.787,2.787,0,0,1,2.593-1.943,1.674,1.674,0,0,0,1.718-1.811c0-.837.006-1.674,0-2.511a1.618,1.618,0,0,0-1.647-1.7,2.892,2.892,0,0,1-2.675-2c-.445-1.167-.918-2.325-1.429-3.465a2.817,2.817,0,0,1,.451-3.255,1.656,1.656,0,0,0-.049-2.46q-.877-.9-1.776-1.776a1.618,1.618,0,0,0-2.411-.064,2.9,2.9,0,0,1-3.393.426c-1.071-.5-2.17-.945-3.279-1.353a2.883,2.883,0,0,1-2.073-2.767,1.6,1.6,0,0,0-1.573-1.566q-1.431-.025-2.862,0a1.569,1.569,0,0,0-1.581,1.558,2.984,2.984,0,0,1-2.161,2.807,24.723,24.723,0,0,0-3.141,1.3,2.906,2.906,0,0,1-3.436-.4,1.615,1.615,0,0,0-2.447.092q-.878.862-1.74,1.74a1.612,1.612,0,0,0-.091,2.412,2.905,2.905,0,0,1,.412,3.477,32.019,32.019,0,0,0-1.28,3.092,2.939,2.939,0,0,1-2.838,2.2,1.6,1.6,0,0,0-1.559,1.589q-.041,1.405,0,2.812a1.681,1.681,0,0,0,1.759,1.622,2.7,2.7,0,0,1,2.467,1.754c.2.47.1.793-.275.919-.433.147-.633-.106-.784-.476a1.64,1.64,0,0,0-1.557-1.065,2.755,2.755,0,0,1-2.759-2.788q-.031-1.38,0-2.762a2.757,2.757,0,0,1,2.758-2.792,1.687,1.687,0,0,0,1.61-1.2q.715-1.813,1.5-3.6a1.665,1.665,0,0,0-.29-1.985,2.8,2.8,0,0,1,.12-4.045q.9-.91,1.812-1.811A2.676,2.676,0,0,1,1350.7,592.679Z" transform="translate(-29.283)"/><path class="b" d="M1490.838,726.445a14.2,14.2,0,0,0-18.55.005,9.1,9.1,0,0,1,4.344-6.816,8.939,8.939,0,0,1,9.773-.055A9.1,9.1,0,0,1,1490.838,726.445Z" transform="translate(-147.208 -117.185)"/><path class="b" d="M1444.031,701.851q.193,1.285.386,2.57c.015.1.035.2.049.3.048.344-.061.6-.423.678a.527.527,0,0,1-.7-.469,21.072,21.072,0,0,1-.367-3.723,11.842,11.842,0,0,1,5.7-9.727A12.238,12.238,0,0,1,1465.774,708c-.1.169-.226.389-.383.434a.832.832,0,0,1-.639-.1c-.261-.189-.2-.475-.078-.769a24.189,24.189,0,0,0,1.294-3.239,11.1,11.1,0,1,0-21.936-2.476Z" transform="translate(-120.833 -91.486)"/><path class="a" d="M1412.517,998.795a1.162,1.162,0,0,1,1.2-1.2,1.2,1.2,0,0,1,1.217,1.2,1.25,1.25,0,0,1-1.215,1.221A1.221,1.221,0,0,1,1412.517,998.795Z" transform="translate(-93.442 -368.551)"/><path class="a" d="M1722.021,998.775a1.207,1.207,0,1,1-2.412.04,1.206,1.206,0,0,1,2.412-.04Z" transform="translate(-369.679 -368.552)"/></g></svg>