<svg xmlns="http://www.w3.org/2000/svg" width="42.672" height="41.69" viewBox="0 0 42.672 41.69"><defs><style>.a{fill:#2a2a2a;}.b{fill:#ffbd00;}</style></defs><g transform="translate(2418.66 -739.503)"><path class="a" d="M-2214.686,1010.915a6.715,6.715,0,0,1-.888.76,1.063,1.063,0,0,0-.58,1.012c.011,2.346-.037,4.694.02,7.039a2.344,2.344,0,0,1-2.536,2.524,8.691,8.691,0,0,1-1.439-.131,2.247,2.247,0,0,1-1.557-2.142c-.006-.148,0-.3,0-.467h-13.985a9.842,9.842,0,0,1-.117.991,2.257,2.257,0,0,1-2.157,1.745,8.943,8.943,0,0,1-1.372-.026,2.223,2.223,0,0,1-1.9-2.235c-.009-2.4-.013-4.8,0-7.206a1.048,1.048,0,0,0-.665-1.123,1.244,1.244,0,0,1-.82-1.421c.027-.317,0-.639.007-.958a.908.908,0,0,1,.967-.963q.583-.014,1.166,0a1.29,1.29,0,0,0,1.274-.754c.606-1.153,1.247-2.286,1.863-3.433a2.9,2.9,0,0,1,2.771-1.632c4,.013,8,.007,12,0a2.8,2.8,0,0,1,2.62,1.526c.651,1.175,1.3,2.353,1.929,3.539a1.272,1.272,0,0,0,1.239.743c.292-.005.586.024.874-.006a1.22,1.22,0,0,1,1.288.615Zm-.974-1.66c-.425,0-.8-.012-1.168,0a2.139,2.139,0,0,1-2.117-1.253c-.6-1.138-1.241-2.259-1.843-3.4a1.973,1.973,0,0,0-1.909-1.143q-6,.023-12,0a1.942,1.942,0,0,0-1.872,1.131c-.627,1.188-1.28,2.363-1.93,3.539a2.018,2.018,0,0,1-1.9,1.121c-.425,0-.851,0-1.3,0,0,.433-.018.807.011,1.178a.477.477,0,0,0,.227.334,2.073,2.073,0,0,1,1.211,2.161c-.046,2.3-.017,4.61-.014,6.915a1.317,1.317,0,0,0,1.407,1.445c.236.005.472,0,.708,0,1.1-.009,1.631-.667,1.415-1.8-.406,0-.82.011-1.233,0-.374-.013-.617-.275-.543-.577.081-.328.331-.405.639-.4,1.18.005,2.361,0,3.541,0h14.79c.476,0,.682.143.694.471.012.348-.2.508-.7.511-.37,0-.741,0-1.1,0-.15,1.214.347,1.789,1.5,1.793.195,0,.389,0,.583,0a1.309,1.309,0,0,0,1.462-1.463c0-2.305.03-4.611-.013-6.915a2.054,2.054,0,0,1,1.2-2.125.454.454,0,0,0,.244-.287C-2215.644,1010.093-2215.66,1009.694-2215.66,1009.255Z" transform="translate(-161.302 -241.069)"/><path class="b" d="M-2418.66,756.094c.109-.722.2-1.449.33-2.166a17.282,17.282,0,0,1,4.348-8.647,17.177,17.177,0,0,1,9.449-5.387,17.267,17.267,0,0,1,14.407,3.29,17.359,17.359,0,0,1,6.594,10.423,17.592,17.592,0,0,1,.353,4.757c-.032.579-.2.813-.519.807-.34-.006-.469-.254-.455-.867,0-.165,0-.329,0-.55-.547,0-1.084,0-1.621,0-.435,0-.694-.19-.666-.5.035-.39.31-.483.652-.48.527.005,1.053,0,1.579,0,.247-7.442-6.436-16.071-16.206-16.262v1.269c0,.139,0,.278,0,.417.01.339-.127.575-.48.612-.292.03-.5-.237-.5-.633-.006-.54,0-1.079,0-1.618-7.726-.193-16.119,6.713-16.251,16.215h1.355c.139,0,.278-.007.417,0,.3.023.514.186.511.493a.471.471,0,0,1-.518.483c-.58.008-1.16,0-1.849,0,.117.937.156,1.839.35,2.707a16.616,16.616,0,0,0,11.521,12.849c.183.062.372.109.559.157.321.083.589.22.517.617-.059.327-.338.438-.768.32a16.922,16.922,0,0,1-3.953-1.605,17.636,17.636,0,0,1-8.883-12.439c-.125-.636-.181-1.286-.269-1.93Z" transform="translate(0 0)"/><path class="b" d="M-2285.931,883.585c-2.361.035-5.284-3.073-5.669-5.854a7.218,7.218,0,0,1,5.67-8.116v.472c0,.805-.006,1.611,0,2.416a.409.409,0,0,1-.26.445,3.893,3.893,0,0,0-2.37,3.7,3.926,3.926,0,0,0,2.364,3.672.475.475,0,0,1,.251.311C-2285.922,881.618-2285.931,882.6-2285.931,883.585Z" transform="translate(-116.403 -119.266)"/><path class="b" d="M-2226.441,862.092a2.078,2.078,0,0,1,1.27,1.147c.046.105.289.174.442.175,1.722.012,3.444.007,5.166.008a3.135,3.135,0,0,1,.374.01.439.439,0,0,1,.435.5.434.434,0,0,1-.458.441c-.291.011-.583,0-.875,0-1.555,0-3.111,0-4.666-.006a.447.447,0,0,0-.494.311,1.811,1.811,0,0,1-1.9,1.054,1.878,1.878,0,0,1-1.617-1.566,1.858,1.858,0,0,1,1.064-1.941.458.458,0,0,0,.312-.5c-.01-1.68-.006-3.361,0-5.041,0-.167,0-.334.009-.5a.446.446,0,0,1,.481-.465.446.446,0,0,1,.458.489c0,.764,0,1.528,0,2.291Zm-.477.946a.832.832,0,0,0-.881.883.877.877,0,0,0,.868.878.9.9,0,0,0,.906-.887A.835.835,0,0,0-2226.918,863.038Z" transform="translate(-174.048 -106.538)"/><path class="b" d="M-2312.722,890.837c-.134-.178-.341-.339-.385-.537-.061-.276.151-.46.428-.5.255-.039.557.226.5.476a2.049,2.049,0,0,1-.351.559Z" transform="translate(-96.745 -137.763)"/><path class="b" d="M-2293.7,865.936c-.023.291-.167.468-.472.463a.428.428,0,0,1-.466-.468.426.426,0,0,1,.47-.464C-2293.863,865.464-2293.719,865.642-2293.7,865.936Z" transform="translate(-113.685 -115.464)"/><path class="b" d="M-2323.827,917.622c.124.183.33.357.352.551a.411.411,0,0,1-.474.454c-.3-.01-.5-.2-.456-.474.031-.194.245-.358.378-.535Z" transform="translate(-86.392 -163.268)"/><path class="b" d="M-2326.835,949.476a1.97,1.97,0,0,1-.518.4c-.245.082-.494-.192-.492-.472,0-.3.19-.5.455-.469.193.022.365.225.547.348Z" transform="translate(-83.244 -191.971)"/><path class="b" d="M-2241.975,835.555c-.129-.178-.339-.345-.367-.538a.411.411,0,0,1,.451-.468c.321-.005.523.193.484.479-.026.19-.245.354-.377.53Z" transform="translate(-161.616 -87.123)"/><path class="b" d="M-2322.806,978.5c.132.175.344.336.377.527a.408.408,0,0,1-.437.48c-.319.011-.528-.179-.5-.467.021-.19.234-.36.361-.538Z" transform="translate(-87.352 -219.077)"/><path class="b" d="M-2269.615,846.945c-.039.426-.175.612-.481.612a.432.432,0,0,1-.479-.458c-.005-.29.171-.505.459-.459C-2269.918,846.673-2269.745,846.861-2269.615,846.945Z" transform="translate(-135.742 -98.201)"/><path class="a" d="M-2159.589,1035.34H-2176.6c.05-.116.085-.215.135-.306.582-1.071,1.174-2.137,1.744-3.214a.645.645,0,0,1,.65-.4q5.977.015,11.955,0a.558.558,0,0,1,.586.285c.613,1.149,1.241,2.29,1.862,3.434C-2159.646,1035.193-2159.63,1035.243-2159.589,1035.34Z" transform="translate(-221.882 -267.589)"/><path class="a" d="M-2195.414,1130.824v-2.6l2.319.312c.055.007.108.025.163.033,1.431.2,1.85.743,1.716,2.253Z" transform="translate(-204.637 -356.321)"/><path class="a" d="M-2000.355,1130.819h-4.175c-.167-1.093.169-1.856.952-2.122a4.962,4.962,0,0,1,.894-.164c.765-.109,1.531-.211,2.33-.32Z" transform="translate(-379.572 -356.309)"/><path class="a" d="M-2116.734,1155.167c-1.068,0-2.136,0-3.2,0-.41,0-.663-.186-.633-.483.037-.361.283-.463.618-.463,2.136.005,4.272,0,6.407,0,.436,0,.65.166.626.485-.031.4-.313.463-.652.46C-2114.626,1155.161-2115.68,1155.166-2116.734,1155.167Z" transform="translate(-273.24 -380.148)"/></g></svg>