<svg xmlns="http://www.w3.org/2000/svg" width="35.195" height="43.198" viewBox="0 0 35.195 43.198"><defs><style>.a{fill:#2a2a2a;}.b{fill:#ffbd00;}</style></defs><g transform="translate(3186.336 -412.738)"><path class="a" d="M-3158.024,412.738c.278.176.288.45.287.74q0,7.043,0,14.087v11.894c0,.07,0,.141,0,.211,0,.483-.156.709-.468.7s-.467-.243-.467-.717q0-12.569,0-25.137v-.823H-3185.4v.5q0,18.03-.01,36.061c0,.435.119.532.542.531q8.624-.022,17.25-.01a1.088,1.088,0,0,1,.458.017.871.871,0,0,1,.433.405c.085.271-.124.439-.387.5a1.581,1.581,0,0,1-.336.014h-18.136c-.616,0-.749-.129-.749-.738q0-18.748.012-37.5a2.244,2.244,0,0,1,.288-.733Z" transform="translate(0 0)"/><path class="b" d="M-2930.219,771.411c-.539-.14-1.091-.24-1.613-.425a6.982,6.982,0,0,1-4.68-6.977,7.056,7.056,0,0,1,5.658-6.582,7.072,7.072,0,0,1,8.409,6.317,7.037,7.037,0,0,1-6.069,7.59.8.8,0,0,0-.187.077Zm6.876-7.039a6.126,6.126,0,0,0-6.084-6.129,6.129,6.129,0,0,0-6.165,6.1,6.163,6.163,0,0,0,6.133,6.142A6.148,6.148,0,0,0-2923.344,764.372Z" transform="translate(-228.733 -315.475)"/><path class="b" d="M-3102.626,451.724h-7.656c-.016.1-.034.194-.046.288a1.471,1.471,0,0,1-1.432,1.287c-.2.005-.394,0-.59,0a1.481,1.481,0,0,1-1.517-1.52q-.016-2.023,0-4.047a.54.54,0,0,0-.344-.593.8.8,0,0,1-.5-.842c0-.028,0-.056,0-.084-.007-1.2.118-1.336,1.316-1.323a.741.741,0,0,0,.757-.465c.317-.625.667-1.233,1-1.85a1.8,1.8,0,0,1,1.705-1.018q3.478.013,6.956,0a1.8,1.8,0,0,1,1.71,1.01c.347.641.708,1.275,1.041,1.924a.633.633,0,0,0,.668.394c1.445-.092,1.382.437,1.369,1.406a.833.833,0,0,1-.5.845.542.542,0,0,0-.344.593c.014,1.208.006,2.417.006,3.625,0,1.473-.493,1.958-1.978,1.949a1.467,1.467,0,0,1-1.5-.995A4.88,4.88,0,0,1-3102.626,451.724Zm-11.234-5.857c.108.216.151.457.293.555a1.359,1.359,0,0,1,.631,1.245q-.03,1.98.006,3.962c0,.221.133.586.279.628a2.291,2.291,0,0,0,1.094.03c.355-.079.3-.451.305-.747,0-.639.127-.768.754-.768h7.924c.84,0,.9.068.93.9.007.194.083.522.189.549a2.757,2.757,0,0,0,1.134.09c.327-.057.361-.412.36-.726-.006-1.335.007-2.669-.007-4a1.3,1.3,0,0,1,.591-1.138c.127-.093.167-.307.247-.466a1.209,1.209,0,0,0-.417-.154,1.5,1.5,0,0,1-1.516-.916c-.313-.626-.673-1.23-1-1.849a.965.965,0,0,0-.94-.573q-3.456.017-6.912,0a.943.943,0,0,0-.915.543c-.3.556-.635,1.093-.9,1.666a1.653,1.653,0,0,1-1.814,1.123A1.772,1.772,0,0,0-3113.859,445.868Z" transform="translate(-65.581 -26.387)"/><path class="a" d="M-2816.81,500.446q0-3.35,0-6.7a1.45,1.45,0,0,1,1.547-1.6,9.347,9.347,0,0,1,1.22.031,1.369,1.369,0,0,1,1.215,1.209,3.166,3.166,0,0,1,.028.461q0,5.078,0,10.157,0,1.537,0,3.074a2.058,2.058,0,0,1-1.33,2.087.478.478,0,0,0-.213.336,6.112,6.112,0,0,0-.011.757.437.437,0,0,1-.419.486c-.287.028-.522-.162-.485-.406a1.425,1.425,0,0,0-.875-1.6,1.642,1.642,0,0,1-.681-1.509Q-2816.806,503.839-2816.81,500.446Zm3.085,4.629V504.6q0-5.082,0-10.163c0-1.371,0-1.371-1.363-1.359-.657.005-.8.141-.8.788q0,5.377,0,10.754v.455Zm-2.159.97c0,.138,0,.248,0,.357,0,.323-.017.647.008.967a1.022,1.022,0,0,0,.992.954.978.978,0,0,0,1.124-.883,13.812,13.812,0,0,0,.01-1.4Z" transform="translate(-338.344 -72.703)"/><path class="a" d="M-3141.432,688.54H-3152.1c-.126,0-.284.044-.373-.015-.155-.1-.365-.267-.373-.414s.172-.345.314-.47c.074-.065.243-.029.369-.029h21.458c.126,0,.3-.041.369.024.148.135.33.327.333.5,0,.132-.232.294-.393.392-.093.057-.247.013-.373.013Z" transform="translate(-30.667 -251.668)"/><path class="a" d="M-3141.664,646.441h10.707c.112,0,.25-.037.332.014.15.094.367.237.373.367a.729.729,0,0,1-.278.489c-.1.081-.293.057-.445.057q-10.686,0-21.372,0a2.917,2.917,0,0,1-.3,0c-.289-.03-.483-.178-.477-.482s.191-.446.5-.446c1.124,0,2.248,0,3.372,0Z" transform="translate(-30.413 -213.972)"/><path class="a" d="M-3141.377,605.75H-3152c-.126,0-.278.04-.374-.015-.162-.094-.4-.25-.4-.378a.83.83,0,0,1,.325-.5c.084-.073.269-.038.409-.038h21.37a1.8,1.8,0,0,1,.336.01.445.445,0,0,1,.424.485.422.422,0,0,1-.468.432c-.267.006-.534.005-.8.005Z" transform="translate(-30.732 -175.865)"/><path class="a" d="M-3141.392,729.154h10.63c.6,0,.791.108.8.447.012.357-.206.491-.808.491q-10.609,0-21.218,0a1.1,1.1,0,0,1-.535-.052.678.678,0,0,1-.31-.466c0-.132.2-.305.351-.388a1.034,1.034,0,0,1,.457-.03h10.63Z" transform="translate(-30.679 -289.709)"/><path class="a" d="M-3139.828,777.989V780.1h-7.549v-2.109Z" transform="translate(-35.672 -334.431)"/><path class="a" d="M-3148.846,822.6c-1.222,0-2.445,0-3.667,0-.331,0-.6-.058-.624-.45-.02-.32.2-.479.641-.479,2.417,0,4.834,0,7.25,0,.339,0,.593.091.634.458.034.3-.217.472-.651.472Q-3147.054,822.6-3148.846,822.6Z" transform="translate(-30.396 -374.422)"/><path class="b" d="M-2889.571,812.074l2.978-3.644q.24-.294.478-.588c.2-.25.451-.372.723-.139s.2.494-.006.743q-1.561,1.9-3.12,3.811-.294.358-.586.717a.481.481,0,0,1-.791.065q-1.271-1.137-2.544-2.271c-.23-.206-.307-.453-.079-.7a.457.457,0,0,1,.706.009Z" transform="translate(-268.898 -361.524)"/><path class="b" d="M-3058.99,470.9h-8.555c.353-.637.678-1.242,1.026-1.835.038-.064.2-.076.307-.076q2.947-.006,5.893,0a.471.471,0,0,1,.354.142C-3059.634,469.7-3059.331,470.279-3058.99,470.9Z" transform="translate(-108.767 -51.506)"/></g></svg>