<svg xmlns="http://www.w3.org/2000/svg" width="137.283" height="147.66" viewBox="0 0 137.283 147.66"><defs><style>.a{fill:#2a2a2a;}.b{fill:#ffbd00;}</style></defs><g transform="translate(-1294.338 -709.026)"><path class="a" d="M3924.364,4168.533l3.272-4.909c2.884,1.906,5.646,3.731,8.406,5.558,2.6,1.722,5.186,3.466,7.8,5.169a20.772,20.772,0,0,1,9.809,18.173c.148,28.909.08,57.82.047,86.729-.007,6.532-4.834,10.869-11.363,11.3a11.852,11.852,0,0,1-12.454-12.375c.3-16.621.094-33.251.09-49.878,0-4.548-1.108-5.665-5.6-5.69-4.3-.024-4.3-.024-4.3,4.276q.005,37.969.01,75.939c0,.732,0,1.464,0,2.532,1.779,0,3.377,0,4.975,0,.949,0,1.905-.049,2.848.033,1.952.17,3.176,1.426,3.1,3.091s-1.381,2.785-3.344,2.793c-4.886.021-9.772,0-14.659,0l-91.615,0c-.611,0-1.223.013-1.833-.015a2.925,2.925,0,0,1-3.1-2.819,2.971,2.971,0,0,1,2.931-3.041c1.756-.125,3.527-.04,5.291-.046.8,0,1.591,0,2.625,0v-2.8c0-38.343.092-76.687-.066-115.029a16.6,16.6,0,0,1,16.314-16.389c20.354.305,40.717.095,61.075.1a15.542,15.542,0,0,1,15.433,15.388c.043,9.025.015,18.052.021,27.078,0,3.406-.392,3.2,3.215,3.063,3.463-.131,6.62.4,9.18,2.934a10.72,10.72,0,0,1,3.468,7.947c-.043,17.237-.018,34.475-.012,51.712,0,3.835,1.281,5.11,5.121,5.129,6,.03,6.745-.729,6.743-6.787q-.006-31.15.035-62.3a3.992,3.992,0,0,0-1.851-3.708c-3.045-2.15-5.935-4.521-8.95-6.717a4.642,4.642,0,0,1-2.086-4.123c.054-7.6-.039-15.2.073-22.8a3.972,3.972,0,0,0-2.148-3.915C3930.043,4172.415,3927.33,4170.5,3924.364,4168.533Zm-91.08,136.728h80.909c0-.963,0-1.827,0-2.691q-.007-13.537-.013-27.074-.006-44.174-.022-88.347c-.007-6.708-3.342-9.973-10.031-9.991-7.464-.019-14.929,0-22.393,0-12.961,0-25.922-.024-38.883.021-5.176.018-8.567,2.631-9.4,7.2a23.973,23.973,0,0,0-.16,4.262q-.01,57.1-.005,114.206Zm107.821-125.5a3.377,3.377,0,0,0-.236.747c-.014,6.23-.029,12.46,0,18.69a2.108,2.108,0,0,0,.489,1.47c1.964,1.608,4.007,3.119,6.023,4.663l.645-.234c-.248-5.631-.168-11.3-.862-16.878A11.054,11.054,0,0,0,3941.1,4179.759Z" transform="translate(-2522.121 -3454.598)"/><path class="a" d="M3905.462,4385.667a74.431,74.431,0,0,0,12.5-12.853c2.343-3.142,4.389-6.508,6.5-9.82,1.191-1.873,2.79-2.514,4.391-1.569,1.479.873,1.806,2.559.77,4.464a84.6,84.6,0,0,1-21.806,25.5c-3.53,2.84-7.352,5.323-11.1,7.886-2.294,1.57-4.071,1.393-5.1-.3s-.4-3.169,2.016-4.74c2.381-1.547,4.743-3.124,6.9-4.547-.75-2.9-1.794-5.527-2.063-8.227-1.421-14.308,4.635-24.376,18.334-30.968a65.757,65.757,0,0,1,22.214-6.041c1.435-.144,2.155.213,2.549,1.711a51.19,51.19,0,0,1-2.585,34.766c-3.637,8.135-10.392,13-18.922,15.4a16.768,16.768,0,0,1-2.329.3c-.227-1.908-.439-3.7-.666-5.6.5-.15.869-.279,1.244-.369,8.583-2.067,14.1-7.375,16.743-15.762a47.274,47.274,0,0,0,1.515-24.21c-1.805.325-3.582.568-5.323.97a50.491,50.491,0,0,0-18.973,8.451c-7.09,5.248-10.383,14.915-7.832,22.962C3904.682,4383.839,3905.027,4384.574,3905.462,4385.667Z" transform="translate(-2566.387 -3561.772)"/><path class="b" d="M3913.391,4258.385q-13.124,0-26.247,0c-3.048,0-4.015-.953-4.019-3.994q-.016-14.141,0-28.282c0-3.04.926-3.966,4.027-3.968q26.246-.015,52.492.009c2.734,0,3.669.988,3.666,3.657q-.019,14.344-.025,28.688c0,2.962-.918,3.89-3.85,3.891Q3926.413,4258.39,3913.391,4258.385Zm-24.285-6.134h48.251c0-7.5-.065-14.818.045-22.135.028-1.883-.643-2.225-2.345-2.217-14.439.06-28.88.035-43.32.037a3.345,3.345,0,0,0-1.4.056c-.482.25-1.171.769-1.175,1.177C3889.088,4236.816,3889.106,4244.465,3889.106,4252.25Z" transform="translate(-2561.635 -3489.282)"/><path class="b" d="M3988.027,4254.742v9.75h-5.634v-9.75Z" transform="translate(-2620.484 -3508.612)"/><path class="b" d="M3950.168,4264.46v-9.755h5.619v9.755Z" transform="translate(-2601.381 -3508.59)"/><path class="b" d="M3923.792,4254.67v9.741h-5.542v-9.741Z" transform="translate(-2582.461 -3508.569)"/></g></svg>