<svg xmlns="http://www.w3.org/2000/svg" width="46.42" height="32.694" viewBox="0 0 46.42 32.694"><defs><style>.a{fill:#2a2a2a;}.b{fill:#ffbd00;}</style></defs><g transform="translate(1159.72 -977.387)"><path class="a" d="M-1148.26,1005.472c-.032.492-.043.958-.1,1.42a3.589,3.589,0,0,1-3.524,3.166,14.4,14.4,0,0,1-2.364-.049,3.618,3.618,0,0,1-3.036-3.656c0-4.061-.012-8.122.008-12.182a1.59,1.59,0,0,0-.956-1.625c-.22-.1-.424-.242-.639-.356a1.426,1.426,0,0,1-.837-1.3c-.012-.808-.028-1.618,0-2.425a1.406,1.406,0,0,1,1.5-1.413c.677-.01,1.354-.023,2.03,0a2.1,2.1,0,0,0,2.08-1.249c1.026-1.918,2.1-3.811,3.117-5.734a4.713,4.713,0,0,1,4.521-2.68q9.926.021,19.852,0a4.714,4.714,0,0,1,4.523,2.677c1.026,1.94,2.106,3.851,3.145,5.784a2.075,2.075,0,0,0,2.051,1.2c.676-.023,1.354-.013,2.03,0a1.426,1.426,0,0,1,1.529,1.457c.031.769.015,1.541,0,2.312a1.358,1.358,0,0,1-.845,1.351,2.476,2.476,0,0,0-1.634,2.776c.09,3.777.033,7.557.031,11.336a3.589,3.589,0,0,1-3.783,3.778,12.8,12.8,0,0,1-2.138-.055,3.572,3.572,0,0,1-3-3.613c0-.3,0-.591,0-.92Zm33.538-17.033c-.753,0-1.464,0-2.174,0a3.443,3.443,0,0,1-3.267-1.993c-1.017-1.9-2.082-3.78-3.089-5.687a3.41,3.41,0,0,0-3.306-1.986q-9.957.047-19.914,0a3.374,3.374,0,0,0-3.264,1.954c-1.012,1.906-2.077,3.783-3.092,5.687a3.477,3.477,0,0,1-3.419,2.021c-.67-.023-1.342,0-2.056,0,0,.705.023,1.325-.008,1.942a.676.676,0,0,0,.452.788,3.2,3.2,0,0,1,.392.221,2.838,2.838,0,0,1,1.582,2.708c-.016,3.987-.007,7.973-.005,11.96a2.359,2.359,0,0,0,2.631,2.648h.9c1.973,0,2.965-1.222,2.59-3.232-.137-.01-.283-.028-.428-.029-.621,0-1.241,0-1.862,0a.631.631,0,0,1-.715-.685c0-.459.281-.67.727-.676.15,0,.3,0,.451,0l26.8,0c1.241,0,2.483-.018,3.723.011a1.065,1.065,0,0,1,.724.307c.359.434,0,1.024-.605,1.038-.781.017-1.562,0-2.367,0,0,.335,0,.579,0,.822a2.313,2.313,0,0,0,2.438,2.441c.414,0,.827,0,1.241,0a2.321,2.321,0,0,0,2.528-2.517q0-6.065,0-12.129a3.852,3.852,0,0,1,.059-.726,3.074,3.074,0,0,1,1.837-2.137c.2-.1.456-.335.472-.525C-1114.688,989.974-1114.722,989.277-1114.722,988.438Z" transform="translate(0 0)"/><path class="b" d="M-1053.4,1014.505h-29.013c.084-.184.143-.333.219-.473.966-1.78,1.944-3.552,2.9-5.339a1.412,1.412,0,0,1,1.4-.819q9.978.023,19.957,0a1.436,1.436,0,0,1,1.426.863c.927,1.758,1.9,3.491,2.851,5.236C-1053.578,1014.131-1053.5,1014.3-1053.4,1014.505Z" transform="translate(-68.584 -27.047)"/><path class="b" d="M-1095.746,1135.377h-7.06v-4.366c1.7.232,3.375.43,5.037.7a2.518,2.518,0,0,1,2.017,2.279C-1095.719,1134.432-1095.746,1134.881-1095.746,1135.377Z" transform="translate(-50.492 -136.288)"/><path class="b" d="M-860.972,1131.036v4.353h-6.969c-.431-1.776.453-3.42,2.008-3.674,1.109-.182,2.226-.312,3.34-.464C-862.074,1131.18-861.555,1131.113-860.972,1131.036Z" transform="translate(-258.756 -136.311)"/><path class="b" d="M-1003.131,1165.288q-2.731,0-5.462,0c-.473,0-.765-.213-.755-.7.01-.453.294-.662.738-.666h.113q5.406,0,10.812,0c.529,0,.855.266.863.678s-.31.683-.847.685C-999.49,1165.291-1001.311,1165.288-1003.131,1165.288Z" transform="translate(-133.403 -165.486)"/></g></svg>