<svg xmlns="http://www.w3.org/2000/svg" width="39.965" height="36.347" viewBox="0 0 39.965 36.347"><defs><style>.a{fill:#2a2a2a;}.b{fill:#ffbd00;}</style></defs><g transform="translate(3209.291 -1033.574)"><path class="a" d="M-2920.376,1141.927c-.474.58-.984,1.135-1.414,1.747-.814,1.157-1.592,2.34-2.366,3.525a7.668,7.668,0,0,1-4.925,3.475,3.714,3.714,0,0,0-2.336,1.532,8.722,8.722,0,0,1,.572,1.354,1.851,1.851,0,0,1-.1.986c-.269.77-.606,1.516-.9,2.279a.469.469,0,0,1-.675.314c-2.134-.729-4.269-1.455-6.4-2.2a.587.587,0,0,1-.337-.41,22.115,22.115,0,0,1,.734-7.138,8.052,8.052,0,0,1,4.434-5.056c.516-.244,1.038-.474,1.554-.718a3.33,3.33,0,0,0,1.836-2.156c.246-.833.48-1.669.707-2.507a1.259,1.259,0,0,0,.022-.454,3.05,3.05,0,0,1,.878-2.635.742.742,0,0,0,.192-.5,3.331,3.331,0,0,1,1.082-2.691.743.743,0,0,0,.179-.365,2.634,2.634,0,0,1,1.971-2.083l.539,1.623,1.018-.386c.525,1.606,1.03,3.144,1.531,4.682.321.986.651,1.969.948,2.962a1.708,1.708,0,0,1,.037.786c-.17.878-.381,1.747-.573,2.621a3.578,3.578,0,0,0-.04.368,2.942,2.942,0,0,1,1.822.967Zm-18.013,12.3,5.869,2.018c.244-.606.476-1.18.706-1.755.38-.948.152-1.448-.822-1.8l-2.56-.926c-.037-.013-.074-.023-.111-.035-.289-.092-.459-.277-.35-.584s.363-.3.619-.209c.843.3,1.686.6,2.523.912a.3.3,0,0,0,.418-.122,4.623,4.623,0,0,1,2.893-1.9,6.852,6.852,0,0,0,4.376-3.133c.792-1.22,1.61-2.422,2.429-3.624.26-.382.558-.739.851-1.123a1.912,1.912,0,0,0-2.243.259,10.871,10.871,0,0,0-1.282,1.3,6.066,6.066,0,0,1-5.483,2.171c-.295-.034-.476-.159-.44-.468s.254-.382.539-.353a5.279,5.279,0,0,0,4.795-1.974,5.59,5.59,0,0,1,2.414-1.906c.089-.03.169-.185.194-.295.222-.973.438-1.948.636-2.926a1.1,1.1,0,0,0-.05-.53c-.537-1.678-1.086-3.354-1.631-5.03-.168-.518-.338-1.035-.517-1.584a1.759,1.759,0,0,0-.406,1.614q.451,2.111.943,4.213a3.1,3.1,0,0,1,.037,1.676c-.242.792-.413,1.606-.616,2.41a.387.387,0,0,1-.489.326.388.388,0,0,1-.312-.5c.013-.089.035-.178.056-.266.2-.831.409-1.662.6-2.495a1.061,1.061,0,0,0,.009-.454c-.26-1.177-.538-2.351-.8-3.528a4.918,4.918,0,0,1-.229-2.417c.191-.68-.2-1.183-.334-1.792a1.964,1.964,0,0,0-.613,2.093c.264,1.415.552,2.825.82,4.24a4.548,4.548,0,0,1,.217,1.526,27.954,27.954,0,0,1-.769,2.81c-.073.257-.241.424-.516.349a.425.425,0,0,1-.288-.59c.084-.313.177-.623.273-.933a4.675,4.675,0,0,0,.256-3.064,5.1,5.1,0,0,1-.156-.761c-.212-1.1-.424-2.2-.648-3.365a2.211,2.211,0,0,0-.427,1.782c.123.767.295,1.527.433,2.292a2.872,2.872,0,0,1,.127,1.068c-.216.946-.527,1.87-.793,2.8-.085.3-.263.472-.567.374-.283-.092-.325-.328-.24-.607.184-.608.3-1.242.541-1.825.416-1,0-1.924-.14-2.942a2,2,0,0,0-.491,1.5,3.056,3.056,0,0,1,0,.884c-.225.892-.5,1.771-.753,2.655a4.128,4.128,0,0,1-2.3,2.7c-.609.289-1.23.554-1.83.861a7.091,7.091,0,0,0-3.685,4.374A19.327,19.327,0,0,0-2938.389,1154.23Z" transform="translate(-248.95 -87.263)"/><path class="a" d="M-3209.291,1141.934a2.94,2.94,0,0,1,1.861-.967c-.166-.767-.287-1.518-.5-2.245a3.489,3.489,0,0,1,.089-2.224c.745-2.127,1.413-4.282,2.112-6.425.179-.548.222-.567.748-.321.129.06.25.135.415.225l.551-1.657a2.554,2.554,0,0,1,1.9,1.857,1.587,1.587,0,0,0,.415.756,3.214,3.214,0,0,1,.922,2.518.738.738,0,0,0,.19.5,3.07,3.07,0,0,1,.878,2.637,1.146,1.146,0,0,0,.021.417c.24.875.483,1.749.743,2.617a3.273,3.273,0,0,0,1.809,2.082c.409.2.821.388,1.237.569a8.331,8.331,0,0,1,5.02,6.178,25.369,25.369,0,0,1,.461,6.124.616.616,0,0,1-.339.447c-2.114.743-4.238,1.461-6.36,2.183-.414.141-.555.077-.721-.329-.26-.636-.512-1.275-.767-1.913a2.033,2.033,0,0,1,.417-2.564,3.457,3.457,0,0,0-2.135-1.557,7.432,7.432,0,0,1-3.745-1.87,17.963,17.963,0,0,1-1.724-2.147c-1.116-1.531-2.2-3.085-3.3-4.628a1.269,1.269,0,0,0-.2-.18Zm4.265-11.225a.911.911,0,0,0-.057.107q-1.082,3.307-2.158,6.615a.856.856,0,0,0-.008.422c.2.977.416,1.953.641,2.925a.471.471,0,0,0,.231.3,4.907,4.907,0,0,1,2.113,1.611,5.89,5.89,0,0,0,2.716,2.011,5.2,5.2,0,0,0,2.342.244c.27-.032.476.041.526.325a.382.382,0,0,1-.37.488,5.7,5.7,0,0,1-.7.069,6.254,6.254,0,0,1-4.917-2.289,9.2,9.2,0,0,0-1.562-1.442,1.654,1.654,0,0,0-1.883-.056c.037.064.066.121.1.174q1.647,2.388,3.294,4.776a6.729,6.729,0,0,0,4.175,2.912,4.809,4.809,0,0,1,2.683,1.548c.158.183.3.378.451.565.873-.316,1.714-.621,2.555-.923.122-.044.259-.127.369-.1.167.039.425.134.448.246.032.153-.105.353-.2.514-.037.061-.162.068-.248.1-.926.335-1.855.663-2.778,1.009a1.046,1.046,0,0,0-.745,1.278c.247.733.554,1.446.83,2.155a.56.56,0,0,0,.122,0c1.863-.64,3.727-1.277,5.585-1.93a.4.4,0,0,0,.2-.3,23.425,23.425,0,0,0-.374-5.158,7.566,7.566,0,0,0-4.669-5.9c-.394-.166-.778-.356-1.165-.54a4.12,4.12,0,0,1-2.27-2.584c-.289-.928-.542-1.867-.8-2.8a1.449,1.449,0,0,1-.015-.5,2.2,2.2,0,0,0-.463-1.834c-.092.495-.153.945-.264,1.382a2.194,2.194,0,0,0,.044,1.253c.221.691.405,1.394.613,2.089.085.283.071.545-.24.641-.335.1-.489-.116-.573-.419-.25-.9-.514-1.794-.764-2.693a.863.863,0,0,1-.02-.376c.185-1.02.4-2.036.566-3.058a2.18,2.18,0,0,0-.413-1.758c-.042.147-.08.252-.1.361-.269,1.414-.53,2.829-.806,4.242a2.488,2.488,0,0,0-.006,1.369c.239.684.4,1.395.6,2.092.085.291.042.545-.265.631s-.469-.134-.547-.413c-.248-.886-.5-1.771-.742-2.659a.875.875,0,0,1-.018-.38c.344-1.809.71-3.614,1.041-5.425a2.106,2.106,0,0,0-.613-2.168c-.108.654-.526,1.164-.317,1.843a2.183,2.183,0,0,1,.034,1.039c-.313,1.536-.678,3.062-.994,4.6a2.624,2.624,0,0,0,.01,1.021c.157.774.389,1.533.547,2.307a.789.789,0,0,1-.15.617c-.213.224-.536.04-.635-.345q-.371-1.45-.717-2.906a.98.98,0,0,1,.021-.419c.359-1.62.733-3.237,1.08-4.859A1.814,1.814,0,0,0-3205.026,1130.71Z" transform="translate(0 -87.349)"/><path class="a" d="M-3074.842,1036.192a11.836,11.836,0,0,0,9.378-2.618,11.82,11.82,0,0,0,9.376,2.613c.037.448.088.883.105,1.319a23.155,23.155,0,0,1-1.839,10.759,11.665,11.665,0,0,1-7.277,6.59,1.3,1.3,0,0,1-.743,0,11.845,11.845,0,0,1-7.567-7.274,23.6,23.6,0,0,1-1.519-10.316C-3074.909,1036.914-3074.873,1036.568-3074.842,1036.192Zm.752.9c-.014.2-.035.341-.032.481.021,1.1.01,2.21.076,3.311a19.136,19.136,0,0,0,1.729,7.1,10.923,10.923,0,0,0,6.555,6.006.782.782,0,0,0,.44.044,10.26,10.26,0,0,0,3.7-2.019,12.8,12.8,0,0,0,3.811-6.046,24.865,24.865,0,0,0,1.009-8.542,3.164,3.164,0,0,0-.045-.321,12.542,12.542,0,0,1-8.616-2.449,12.019,12.019,0,0,1-4.07,2.019A12.313,12.313,0,0,1-3074.09,1037.1Z" transform="translate(-123.829)"/><path class="b" d="M-3048.458,1070.716c1.351-.248,2.622-.424,3.862-.727a12.119,12.119,0,0,0,3.3-1.449.566.566,0,0,1,.474-.053,14.148,14.148,0,0,0,7.164,2.089c.02.039.051.072.051.1a19.58,19.58,0,0,1-1.948,9.428,9.519,9.519,0,0,1-5.181,4.709.889.889,0,0,1-.579-.009,9.9,9.9,0,0,1-5.636-5.656,18.467,18.467,0,0,1-1.4-6.072C-3048.41,1072.266-3048.426,1071.448-3048.458,1070.716Zm12.018,5.5a4.327,4.327,0,0,0-4.273-4.315,4.333,4.333,0,0,0-4.333,4.3,4.3,4.3,0,0,0,4.276,4.3A4.289,4.289,0,0,0-3036.44,1076.219Z" transform="translate(-148.277 -32.157)"/><path class="b" d="M-2983.224,1147.012l2.268-2.773c.066-.081.133-.16.2-.241.182-.225.4-.37.662-.147s.174.453-.015.683c-.579.7-1.152,1.407-1.727,2.112-.312.382-.621.767-.936,1.147-.253.305-.462.324-.759.063-.6-.532-1.2-1.071-1.808-1.6a.429.429,0,0,1-.1-.647c.2-.24.432-.186.646,0Z" transform="translate(-206.273 -101.566)"/></g></svg>