<svg xmlns="http://www.w3.org/2000/svg" width="51.55" height="51.541" viewBox="0 0 51.55 51.541">
  <g id="Group_1315" data-name="Group 1315" transform="translate(-1564.504 -74.539)">
    <path id="Path_3260" data-name="Path 3260" d="M1616.053,100.307a25.775,25.775,0,1,1-25.9-25.768A25.762,25.762,0,0,1,1616.053,100.307Zm-49.374.023a23.6,23.6,0,1,0,23.644-23.615A23.591,23.591,0,0,0,1566.679,100.33Z" transform="translate(0 0)" fill="#2a2a2a"/>
    <path id="Path_3261" data-name="Path 3261" d="M1765.989,248.787l1.658,1.394-9.5,11.3a4.5,4.5,0,0,1,.651,3.642,4.412,4.412,0,0,1-5.781,3.115.586.586,0,0,0-.788.207c-.81,1.008-1.652,1.992-2.5,3.005l-1.67-1.4c.854-1.023,1.673-2.024,2.517-3a.557.557,0,0,0,.067-.773,4.434,4.434,0,0,1,5.343-6.41.659.659,0,0,0,.878-.236q4.365-5.227,8.76-10.428C1765.724,249.084,1765.829,248.968,1765.989,248.787Zm-11.522,17.528a2.257,2.257,0,0,0,2.285-2.252,2.27,2.27,0,1,0-4.539-.034A2.261,2.261,0,0,0,1754.467,266.315Z" transform="translate(-164.206 -155.881)" fill="#2a2a2a"/>
    <path id="Path_3262" data-name="Path 3262" d="M1640.494,408.977l-1.281-1.759,3.645-2.657,1.287,1.758Z" transform="translate(-66.834 -295.234)" fill="#ffbd00"/>
    <path id="Path_3263" data-name="Path 3263" d="M1681.6,150.519l1.759-1.281,2.655,3.646-1.761,1.284Z" transform="translate(-104.757 -66.825)" fill="#ffbd00"/>
    <path id="Path_3264" data-name="Path 3264" d="M1935.724,191.6l1.281,1.761-3.649,2.653-1.282-1.76Z" transform="translate(-328.826 -104.722)" fill="#ffbd00"/>
    <path id="Path_3265" data-name="Path 3265" d="M1642.887,196.006l-3.646-2.648,1.278-1.764,3.646,2.647Z" transform="translate(-66.86 -104.717)" fill="#ffbd00"/>
    <path id="Path_3266" data-name="Path 3266" d="M1894.6,152.887l2.651-3.644,1.764,1.273-2.652,3.653Z" transform="translate(-295.299 -66.829)" fill="#ffbd00"/>
    <path id="Path_3267" data-name="Path 3267" d="M1932.062,406.324l1.285-1.759,3.644,2.647-1.275,1.763Z" transform="translate(-328.814 -295.238)" fill="#ffbd00"/>
    <path id="Path_3268" data-name="Path 3268" d="M1736.569,123.97l2.051-.711,1.441,4.195c-.634.22-1.221.435-1.818.618a.36.36,0,0,1-.315-.156C1737.468,126.617,1737.027,125.31,1736.569,123.97Z" transform="translate(-153.928 -43.584)" fill="#ffbd00"/>
    <path id="Path_3269" data-name="Path 3269" d="M1851.894,123.959c-.459,1.343-.894,2.633-1.354,3.913a.432.432,0,0,1-.382.177c-.567-.167-1.122-.378-1.755-.6l1.431-4.192Z" transform="translate(-253.974 -43.583)" fill="#ffbd00"/>
    <path id="Path_3270" data-name="Path 3270" d="M1617.425,250.013l-4.195-1.434.708-2.058c1.337.457,2.628.892,3.91,1.353a.436.436,0,0,1,.174.387C1617.855,248.828,1617.645,249.383,1617.425,250.013Z" transform="translate(-43.59 -153.853)" fill="#ffbd00"/>
    <path id="Path_3271" data-name="Path 3271" d="M1617.446,358.378c.223.64.432,1.195.6,1.763a.433.433,0,0,1-.186.38c-1.281.46-2.571.894-3.9,1.349l-.706-2.057Z" transform="translate(-43.609 -253.92)" fill="#ffbd00"/>
    <path id="Path_3272" data-name="Path 3272" d="M1963.288,246.558l.7,2.058-4.189,1.436c-.219-.63-.436-1.215-.616-1.812a.4.4,0,0,1,.194-.332C1960.658,247.452,1961.947,247.017,1963.288,246.558Z" transform="translate(-353.073 -153.886)" fill="#ffbd00"/>
    <path id="Path_3273" data-name="Path 3273" d="M1963.759,359.784l-.7,2.052c-.65-.218-1.274-.426-1.9-.638-.645-.22-1.286-.455-1.936-.66-.248-.078-.366-.176-.27-.444.2-.557.393-1.117.611-1.739Z" transform="translate(-352.841 -253.898)" fill="#ffbd00"/>
    <path id="Path_3274" data-name="Path 3274" d="M1800.867,121.441h-2.077a1.53,1.53,0,0,1-.073-.331c-.005-1.205,0-2.411-.008-3.616,0-.342.128-.468.463-.455.436.017.875-.014,1.309.017.133.01.368.153.369.238C1800.874,118.667,1800.867,120.041,1800.867,121.441Z" transform="translate(-209.518 -38.019)" fill="#ffbd00"/>
    <path id="Path_3275" data-name="Path 3275" d="M1611.335,308.827v2.088H1609.6c-.734,0-1.468-.011-2.2,0-.333.007-.5-.11-.46-.453a.4.4,0,0,0,0-.052c-.049-1.66-.049-1.662,1.6-1.663.873,0,1.747.007,2.62.015A.675.675,0,0,1,1611.335,308.827Z" transform="translate(-37.948 -209.523)" fill="#ffbd00"/>
    <path id="Path_3276" data-name="Path 3276" d="M1969.241,310.844v-2.1a2.868,2.868,0,0,1,.405-.06c1.158-.006,2.315.006,3.472-.011.375-.006.523.1.532.5.036,1.67.048,1.67-1.618,1.67Z" transform="translate(-362.074 -209.452)" fill="#ffbd00"/>
  </g>
</svg>
