<?xml version="1.0" encoding="iso-8859-1"?>
<!-- Uploaded to: SVG Repo, www.svgrepo.com, Generator: SVG Repo Mixer Tools -->
<svg fill="#000000" version="1.1" id="Layer_1" xmlns="http://www.w3.org/2000/svg" xmlns:xlink="http://www.w3.org/1999/xlink" 
	 viewBox="0 0 512 512" xml:space="preserve">
<g>
	<g>
		<path d="M256,0C114.84,0,0,114.842,0,256s114.84,256,256,256c141.158,0,256-114.842,256-256S397.158,0,256,0z M416.773,327.193
			l-18.732,32.443l37.08,21.408c-39.549,56.482-105.09,93.492-179.121,93.492s-139.572-37.01-179.121-93.492l37.08-21.408
			l-18.732-32.443l-37.13,21.437C44.872,320.49,37.463,289.095,37.463,256s7.409-64.49,20.634-92.63l37.13,21.437l18.732-32.443
			l-37.08-21.408c36.178-51.668,94.108-87.026,160.39-92.681v42.896h37.463V38.275c66.282,5.653,124.211,41.012,160.39,92.681
			l-37.08,21.408l18.732,32.443l37.13-21.437c13.225,28.14,20.634,59.534,20.634,92.63s-7.409,64.49-20.634,92.63L416.773,327.193z"
			/>
	</g>
</g>
<g>
	<g>
		<path d="M256,218.537c-0.055,0-0.11,0.004-0.166,0.005L184.765,96.708l-32.36,18.875l71.069,121.833
			c-3.136,5.478-4.938,11.818-4.938,18.583c0,20.69,16.774,37.463,37.463,37.463S293.463,276.69,293.463,256
			S276.69,218.537,256,218.537z"/>
	</g>
</g>
<g>
	<g>
		<rect x="206.049" y="362.146" width="99.902" height="37.463"/>
	</g>
</g>
</svg>